<?xml version="1.0" encoding="iso-8859-1"?>
<!-- Generator: Adobe Illustrator 19.0.0, SVG Export Plug-In . SVG Version: 6.00 Build 0)  -->
<svg version="1.1" id="Capa_1" xmlns="http://www.w3.org/2000/svg" xmlns:xlink="http://www.w3.org/1999/xlink" x="0px" y="0px"
	 viewBox="0 0 512 512" style="enable-background:new 0 0 512 512;" xml:space="preserve">
<circle style="fill:#2864F0;" cx="256" cy="256" r="256"/>
<path style="fill:#0053BF;" d="M512,256c0-15.761-1.433-31.186-4.16-46.16L429.5,131.5l-13.734,14.29L379.5,109.524l-257,294.331
	l106.759,106.759c8.79,0.912,17.71,1.386,26.741,1.386C397.385,512,512,397.385,512,256z"/>
<polygon style="fill:#E8C917;" points="389.5,191.855 122.5,191.855 132.5,109.524 379.5,109.524 "/>
<polygon style="fill:#DEBB0D;" points="379.5,109.524 255.571,109.524 255.571,191.854 389.5,191.854 "/>
<rect x="122.5" y="201.52" style="fill:#FFE67D;" width="267" height="202.33"/>
<g>
	<rect x="255.57" y="201.52" style="fill:#F7D139;" width="133.93" height="202.33"/>
	<polygon style="fill:#F7D139;" points="389.5,207.524 122.5,207.524 82.5,131.5 429.5,131.5 	"/>
</g>
<polygon style="fill:#E8C917;" points="429.5,131.5 255.571,131.5 255.571,207.524 389.5,207.524 "/>
<rect x="204.75" y="324.5" style="fill:#FFF5AF;" width="102.5" height="52.5"/>
<rect x="255.57" y="324.5" style="fill:#FFF091;" width="51.679" height="52.5"/>
<g>
</g>
<g>
</g>
<g>
</g>
<g>
</g>
<g>
</g>
<g>
</g>
<g>
</g>
<g>
</g>
<g>
</g>
<g>
</g>
<g>
</g>
<g>
</g>
<g>
</g>
<g>
</g>
<g>
</g>
</svg>
