<svg height="512pt" viewBox="0 0 512 512" width="512pt" xmlns="http://www.w3.org/2000/svg"><path d="m512 256c0 141.386719-114.613281 256-256 256s-256-114.613281-256-256 114.613281-256 256-256 256 114.613281 256 256zm0 0" fill="#00ffea"/><path d="m511 278.558594-116.230469-115.949219c-6.632812-7.210937-16.054687-11.480469-26.121093-11.480469h-37.148438l-24.25-23.128906h-214.675781v64.167969h-26.398438v14.410156l14.199219 14.125h-3.976562v14.414063l16.175781 15.792968v2.253906l-33.171875-32.460937h-21.570313v14.414063l14.386719 14.363281h-32.683594v14.414062l23.917969 23.820313v4.476562l219.699219 219.703125c130.523437-3.578125 236.628906-104.859375 247.847656-233.335937zm0 0" fill="#00ceb4"/><path d="m437.953125 242.179688-37.867187-72.058594c-6.140626-11.679688-18.246094-18.992188-31.4375-18.992188h-76.191407v162.78125h-199.882812v25.011719h383.390625v-80.410156zm0 0" fill="#ff3d62"/><path d="m475.960938 258.515625v80.40625h-277.078126v-25.011719h93.570313v-162.785156h76.195313c13.195312 0 25.296874 7.316406 31.4375 18.996094l37.867187 72.058594zm0 0" fill="#e7001f"/><path d="m92.574219 128h214.671875v186.550781h-214.671875zm0 0" fill="#004eb1"/><path d="m198.882812 128h108.367188v186.550781h-108.367188zm0 0" fill="#002d6b"/><path d="m416.671875 242.183594h-90.292969v-72.863282h45.09375c5.734375 0 10.972656 3.261719 13.503906 8.410157zm0 0" fill="#84caff"/><path d="m440.28125 332.414062c0 23.359376-18.933594 42.289063-42.289062 42.289063-23.355469 0-42.289063-18.929687-42.289063-42.289063 0-23.355468 18.933594-42.285156 42.289063-42.285156 23.355468 0 42.289062 18.929688 42.289062 42.285156zm0 0" fill="#2a2a2c"/><path d="m217.734375 332.414062c0 23.359376-18.933594 42.289063-42.289063 42.289063-23.355468 0-42.289062-18.929687-42.289062-42.289063 0-23.355468 18.933594-42.285156 42.289062-42.285156 23.355469 0 42.289063 18.929688 42.289063 42.285156zm0 0" fill="#3c3b41"/><path d="m198.863281 332.414062c0 12.9375-10.484375 23.421876-23.417969 23.421876-12.933593 0-23.421874-10.484376-23.421874-23.421876 0-12.933593 10.488281-23.417968 23.421874-23.417968 12.933594 0 23.417969 10.484375 23.417969 23.417968zm0 0" fill="#fff"/><path d="m421.410156 332.414062c0 12.9375-10.484375 23.421876-23.417968 23.421876-12.933594 0-23.421876-10.484376-23.421876-23.421876 0-12.933593 10.488282-23.417968 23.421876-23.417968 12.933593 0 23.417968 10.484375 23.417968 23.417968zm0 0" fill="#fff5cb"/><path d="m437.953125 242.179688v14.625c0 11.664062 9.453125 21.121093 21.117187 21.121093h16.894532v-19.414062zm0 0" fill="#ff8900"/><g fill="#fff"><path d="m76.398438 220.707031h61.742187v14.410157h-61.742187zm0 0"/><path d="m37.832031 220.707031h21.570313v14.410157h-21.570313zm0 0"/><path d="m43.453125 277.78125h67.40625v14.414062h-67.40625zm0 0"/><path d="m66.175781 192.167969h84.070313v14.410156h-84.070313zm0 0"/><path d="m19.535156 249.480469h66.742188v14.414062h-66.742188zm0 0"/><path d="m99.183594 249.480469h26.753906v14.414062h-26.753906zm0 0"/></g></svg>