<svg height="512pt" viewBox="0 0 512 512" width="512pt" xmlns="http://www.w3.org/2000/svg"><path d="m512 256c0 141.386719-114.613281 256-256 256s-256-114.613281-256-256 114.613281-256 256-256 256 114.613281 256 256zm0 0" fill="#fad818"/><path d="m512 256c0-40.484375-9.410156-78.765625-26.144531-112.800781l-52.839844-52.84375c-2.660156-2.683594-356.757813 239.761719-354.25 242.394531l95.484375 94.5-2.601562 11.195312 73.300781 73.300782c3.667969.15625 7.347656.253906 11.050781.253906 141.386719 0 256-114.613281 256-256zm0 0" fill="#f4b913"/><path d="m196.5 330h119v89.332031h-119zm0 0" fill="#57545c"/><path d="m256 330h59.5v89.328125h-59.5zm0 0" fill="#3a383f"/><path d="m422.621094 337.332031h-333.242188c-8.070312 0-14.667968-6.597656-14.667968-14.667969v-222c0-8.0625 6.597656-14.664062 14.667968-14.664062h333.242188c8.070312 0 14.667968 6.601562 14.667968 14.667969v222c0 8.066406-6.601562 14.664062-14.667968 14.664062zm0 0" fill="#8d8a94"/><path d="m437.289062 100.671875v222c0 8.058594-6.597656 14.65625-14.667968 14.65625h-166.621094v-251.328125h166.621094c8.070312 0 14.667968 6.601562 14.667968 14.671875zm0 0" fill="#797880"/><path d="m171.648438 408.445312h168.703124v30h-168.703124zm0 0" fill="#3a383f"/><path d="m256 408.449219h84.351562v30h-84.351562zm0 0" fill="#101012"/><path d="m96.5 107.546875h319v208.242187h-319zm0 0" fill="#fff"/><path d="m256 107.550781h159.5v208.238281h-159.5zm0 0" fill="#fff5ca"/><path d="m115.1875 144.511719h121.945312v134.308593h-121.945312zm0 0" fill="#00ec88"/><path d="m176.160156 144.515625h60.972656v134.304687h-60.972656zm0 0" fill="#00ca76"/><path d="m163.085938 230.085938h26.144531v32.386718h-26.144531zm0 0" fill="#ffc473"/><path d="m176.160156 230.085938h13.070313v32.386718h-13.070313zm0 0" fill="#ffb74f"/><path d="m205.378906 194.792969c-1.222656-17.957031-16.539062-28.152344-29.222656-28.152344s-27.996094 10.195313-29.21875 28.152344c-3.28125.613281-5.609375 3.683593-5.246094 7.054687l.566406 5.21875c.382813 3.539063 3.59375 6.121094 7.132813 5.738282l.613281-.066407c7.246094 18.867188 18.941406 23.722657 26.15625 24.824219 7.210938-1.101562 18.910156-5.957031 26.15625-24.824219l.609375.066407c3.539063.382812 6.75-2.199219 7.132813-5.738282l.566406-5.21875c.363281-3.371094-1.964844-6.441406-5.246094-7.054687zm0 0" fill="#ffdba9"/><path d="m210.621094 201.847656-.5625 5.21875c-.382813 3.539063-3.59375 6.121094-7.132813 5.742188l-.613281-.066406c-7.242188 18.859374-18.9375 23.71875-26.152344 24.824218v-70.925781c12.679688 0 27.996094 10.195313 29.21875 28.152344 3.28125.613281 5.609375 3.683593 5.242188 7.054687zm0 0" fill="#ffc473"/><path d="m176.160156 197.71875v20.226562h5.902344v-14.320312h12.867188v-5.90625zm0 0" fill="#ffaa20"/><path d="m156.949219 197.71875h15.0625v5.90625h-15.0625zm0 0" fill="#ffc473"/><path d="m226.097656 262.28125v16.539062h-99.878906v-16.539062c0-8.921875 7.234375-16.15625 16.15625-16.15625h20.710938c0 7.222656 5.851562 13.074219 13.074218 13.074219 7.21875 0 13.070313-5.855469 13.070313-13.074219h20.710937c8.925782 0 16.15625 7.234375 16.15625 16.15625zm0 0" fill="#0061c6"/><path d="m226.097656 262.28125v16.539062h-49.9375v-19.621093c7.21875 0 13.070313-5.855469 13.070313-13.074219h20.710937c8.925782 0 16.15625 7.234375 16.15625 16.15625zm0 0" fill="#00296d"/><path d="m146.9375 194.792969 1.667969 11.632812h3.535156l4.246094-21.953125 12.15625 5.449219 7.617187-4.566406 7.609375 4.566406 12.160157-5.449219 3.507812 21.953125h4.125l1.8125-11.632812s5.855469-35.519531-29.214844-35.519531c-35.070312 0-29.222656 35.519531-29.222656 35.519531zm0 0" fill="#b04b00"/><path d="m205.375 194.789062-1.808594 11.636719h-4.125l-3.507812-21.957031-12.160156 5.453125-7.613282-4.566406v-26.082031c35.074219 0 29.214844 35.515624 29.214844 35.515624zm0 0" fill="#803400"/><g fill="#00296d"><path d="m275.335938 148.921875h33.824218v30h-33.824218zm0 0"/><path d="m321.070312 148.921875h65.015626v30h-65.015626zm0 0"/><path d="m275.335938 244.410156h33.824218v30h-33.824218zm0 0"/><path d="m321.070312 244.414062h65.015626v30h-65.015626zm0 0"/><path d="m275.335938 196.667969h65.015624v30h-65.015624zm0 0"/><path d="m350.027344 196.667969h36.058594v30h-36.058594zm0 0"/></g></svg>