<svg height="512pt" viewBox="0 0 512 512" width="512pt" xmlns="http://www.w3.org/2000/svg"><path d="m512 256c0 141.386719-114.613281 256-256 256s-256-114.613281-256-256 114.613281-256 256-256 256 114.613281 256 256zm0 0" fill="#004eb1"/><path d="m497.722656 340.457031-113.113281-113.113281h-31.640625l-143.449219-143.542969c-13.359375-14.699219-32.617187-23.9375-54.042969-23.9375-40.335937 0-73.035156 32.699219-73.035156 73.035157 0 19.324218 7.503906 36.882812 19.757813 49.941406l38.007812 38.050781v188.722656l102.015625 102.015625c4.5625.242188 9.15625.371094 13.777344.371094 111.789062 0 206.824219-71.660156 241.722656-171.542969zm0 0" fill="#002d6b"/><path d="m207.472656 227.34375h177.136719v156.148438h-177.136719zm0 0" fill="#ff8900"/><path d="m296.039062 227.339844h88.570313v156.152344h-88.570313zm0 0" fill="#c06100"/><path d="m269.957031 227.34375h52.167969v43.035156h-52.167969zm0 0" fill="#ffec98"/><path d="m296.039062 227.339844h26.082032v43.039062h-26.082032zm0 0" fill="#ffdb2d"/><path d="m179.402344 404.230469h233.277344v23.945312h-233.277344zm0 0" fill="#00ceb4"/><path d="m296.039062 404.226562h116.640626v23.949219h-116.640626zm0 0" fill="#008878"/><path d="m170.746094 381.238281v-176.914062c33.003906-7.019531 57.765625-36.324219 57.765625-71.425781 0-40.335938-32.699219-73.035157-73.035157-73.035157-40.335937 0-73.039062 32.699219-73.039062 73.035157 0 35.101562 24.765625 64.40625 57.769531 71.425781v205.289062h283.433594v-28.375zm0 0" fill="#00ffea"/><path d="m296.039062 381.238281h127.605469v28.378907h-127.605469zm0 0" fill="#00ceb4"/><path d="m208.046875 132.898438c0 29.035156-23.535156 52.574218-52.570313 52.574218-29.035156 0-52.570312-23.539062-52.570312-52.574218 0-29.03125 23.535156-52.570313 52.570312-52.570313 29.035157 0 52.570313 23.539063 52.570313 52.570313zm0 0" fill="#fff"/><path d="m150.695312 91.441406h9.5625v34.472656h-9.5625zm0 0" fill="#ff0335"/><path d="m165.234375 132.898438c0 5.390624-4.367187 9.761718-9.757813 9.761718-5.390624 0-9.757812-4.371094-9.757812-9.761718 0-5.386719 4.367188-9.757813 9.757812-9.757813 5.390626 0 9.757813 4.371094 9.757813 9.757813zm0 0" fill="#004eb1"/></svg>