<?xml version="1.0" encoding="iso-8859-1"?>
<!-- Generator: Adobe Illustrator 19.0.0, SVG Export Plug-In . SVG Version: 6.00 Build 0)  -->
<svg version="1.1" id="Layer_1" xmlns="http://www.w3.org/2000/svg" xmlns:xlink="http://www.w3.org/1999/xlink" x="0px" y="0px"
	 viewBox="0 0 512 512" style="enable-background:new 0 0 512 512;" xml:space="preserve">
<circle style="fill:#386895;" cx="256" cy="256" r="256"/>
<path style="fill:#273B7A;" d="M266.936,511.752c132.691-5.579,239.251-112.147,244.817-244.841L359.946,115.103l-20.016,19.373
	l-41.85-41.85l-11.898,6.463l-16.208-16.208l-29.92,8.916l70.811,70.811L215.2,262.465l-18.675,30.887L150.583,395.4
	L266.936,511.752z"/>
<path style="fill:#D35933;" d="M355.95,398.222H156.05c-3.71,0-6.716-3.006-6.716-6.716V120.494c0-3.71,3.007-6.716,6.716-6.716
	H355.95c3.71,0,6.716,3.006,6.716,6.716v271.012C362.667,395.216,359.66,398.222,355.95,398.222z"/>
<path style="fill:#B54324;" d="M355.95,113.778H256v284.444h99.95c3.71,0,6.716-3.006,6.716-6.716V120.494
	C362.667,116.784,359.66,113.778,355.95,113.778z"/>
<rect x="160.323" y="124.121" style="fill:#FFFFFF;" width="191.354" height="260.31"/>
<rect x="256" y="124.121" style="fill:#D0D1D3;" width="95.677" height="260.31"/>
<path style="fill:#FFC61B;" d="M274.341,90.936c-2.108-8.175-9.509-14.222-18.341-14.222s-16.234,6.047-18.341,14.222h-18.579
	c-4.841,0-8.764,3.924-8.764,8.763v28.157c0,4.841,3.924,8.764,8.764,8.764h73.84c4.841,0,8.763-3.924,8.763-8.764V99.699
	c0-4.841-3.924-8.763-8.763-8.763H274.341z M256,101.71c-3.332,0-6.034-2.701-6.034-6.034s2.701-6.034,6.034-6.034
	s6.034,2.701,6.034,6.034S259.332,101.71,256,101.71z"/>
<path style="fill:#EAA22F;" d="M292.919,90.936h-18.579c-2.108-8.175-9.509-14.222-18.341-14.222v12.929
	c3.332,0,6.034,2.701,6.034,6.034s-2.701,6.034-6.034,6.034v34.909h36.919c4.841,0,8.763-3.924,8.763-8.763V99.699
	C301.684,94.86,297.76,90.936,292.919,90.936z"/>
<g>
	<path style="fill:#273B7A;" d="M324.956,187.044H211.178c-1.903,0-3.448-1.545-3.448-3.448c0-1.903,1.545-3.448,3.448-3.448
		h113.778c1.903,0,3.448,1.545,3.448,3.448C328.404,185.499,326.859,187.044,324.956,187.044z"/>
	<path style="fill:#273B7A;" d="M324.956,265.912H211.178c-1.903,0-3.448-1.545-3.448-3.448s1.545-3.448,3.448-3.448h113.778
		c1.903,0,3.448,1.545,3.448,3.448S326.859,265.912,324.956,265.912z"/>
	<path style="fill:#273B7A;" d="M324.956,344.781H211.178c-1.903,0-3.448-1.545-3.448-3.448s1.545-3.448,3.448-3.448h113.778
		c1.903,0,3.448,1.545,3.448,3.448S326.859,344.781,324.956,344.781z"/>
	<path style="fill:#273B7A;" d="M324.956,226.478H211.178c-1.903,0-3.448-1.545-3.448-3.448s1.545-3.448,3.448-3.448h113.778
		c1.903,0,3.448,1.545,3.448,3.448S326.859,226.478,324.956,226.478z"/>
	<path style="fill:#273B7A;" d="M324.956,305.347H211.178c-1.903,0-3.448-1.545-3.448-3.448s1.545-3.448,3.448-3.448h113.778
		c1.903,0,3.448,1.545,3.448,3.448S326.859,305.347,324.956,305.347z"/>
</g>
<g>
	<path style="fill:#FFC61B;" d="M193.077,187.044h-5.172c-1.903,0-3.448-1.545-3.448-3.448c0-1.903,1.545-3.448,3.448-3.448h5.172
		c1.903,0,3.448,1.545,3.448,3.448C196.525,185.499,194.981,187.044,193.077,187.044z"/>
	<path style="fill:#FFC61B;" d="M193.077,265.912h-5.172c-1.903,0-3.448-1.545-3.448-3.448s1.545-3.448,3.448-3.448h5.172
		c1.903,0,3.448,1.545,3.448,3.448S194.981,265.912,193.077,265.912z"/>
	<path style="fill:#FFC61B;" d="M193.077,344.781h-5.172c-1.903,0-3.448-1.545-3.448-3.448s1.545-3.448,3.448-3.448h5.172
		c1.903,0,3.448,1.545,3.448,3.448S194.981,344.781,193.077,344.781z"/>
	<path style="fill:#FFC61B;" d="M193.077,226.478h-5.172c-1.903,0-3.448-1.545-3.448-3.448s1.545-3.448,3.448-3.448h5.172
		c1.903,0,3.448,1.545,3.448,3.448S194.981,226.478,193.077,226.478z"/>
	<path style="fill:#FFC61B;" d="M193.077,305.347h-5.172c-1.903,0-3.448-1.545-3.448-3.448s1.545-3.448,3.448-3.448h5.172
		c1.903,0,3.448,1.545,3.448,3.448S194.981,305.347,193.077,305.347z"/>
</g>
<g>
</g>
<g>
</g>
<g>
</g>
<g>
</g>
<g>
</g>
<g>
</g>
<g>
</g>
<g>
</g>
<g>
</g>
<g>
</g>
<g>
</g>
<g>
</g>
<g>
</g>
<g>
</g>
<g>
</g>
</svg>
