<svg height="512pt" viewBox="0 0 512 512" width="512pt" xmlns="http://www.w3.org/2000/svg"><path d="m512 256c0 141.386719-114.613281 256-256 256s-256-114.613281-256-256 114.613281-256 256-256 256 114.613281 256 256zm0 0" fill="#004eb1"/><path d="m512 256c0-22.097656-2.800781-43.539062-8.0625-63.992188l-90.617188-90.617187h-324.640624v293.222656l111.199218 111.199219c18.0625 4.042969 36.839844 6.1875 56.121094 6.1875 141.386719 0 256-114.613281 256-256zm0 0" fill="#002d6b"/><path d="m88.679688 101.390625h324.640624v293.222656h-324.640624zm0 0" fill="#ffb84d"/><path d="m250.996094 101.386719h162.320312v293.226562h-162.320312zm0 0" fill="#ff8900"/><path d="m203.195312 101.390625h95.609376v84.851563h-95.609376zm0 0" fill="#ffec98"/><path d="m250.996094 101.386719h47.800781v84.855469h-47.800781zm0 0" fill="#ffdb2d"/><path d="m376.09375 223.609375-68.339844 27.179687v80.335938c0 23.878906 8.707032 54.53125 68.339844 73.371094 59.628906-18.839844 68.335938-49.492188 68.335938-73.371094s0-80.335938 0-80.335938zm0 0" fill="#00ad95"/><path d="m444.429688 250.789062v80.339844c0 23.871094-8.710938 54.53125-68.339844 73.371094v-180.890625zm0 0" fill="#006659"/><path d="m376.089844 213.976562-77.289063 30.738282v86.410156c0 17.21875 4.4375 31.578125 13.566407 43.90625 12.179687 16.445312 32.144531 28.878906 61.027343 38.003906l2.695313.851563 2.699218-.851563c28.882813-9.125 48.84375-21.558594 61.027344-38.003906 9.128906-12.328125 13.566406-26.6875 13.566406-43.90625v-86.410156zm59.386718 117.148438c0 20.703125-6.828124 46.574219-59.386718 63.960938-52.554688-17.386719-59.382813-43.257813-59.382813-63.960938v-74.261719l59.382813-23.617187 59.386718 23.617187zm0 0" fill="#00ffea"/><path d="m376.089844 213.96875v19.28125l59.390625 23.609375v74.269531c0 20.699219-6.832031 46.570313-59.390625 63.960938v18.800781l2.699218-.859375c28.882813-9.121094 48.839844-21.550781 61.03125-38 9.128907-12.332031 13.558594-26.691406 13.558594-43.902344v-86.417968zm0 0" fill="#00ceb4"/><path d="m373.769531 352.304688-43.597656-38.386719 14.105469-16.023438 27.335937 24.066407 35.324219-41.347657 16.230469 13.867188zm0 0" fill="#fff"/><path d="m423.171875 294.480469-47.082031 55.097656v-32.859375l30.851562-36.109375zm0 0" fill="#ffec98"/></svg>