<svg id="Layer_1" enable-background="new 0 0 512 512" height="512" viewBox="0 0 512 512" width="512" xmlns="http://www.w3.org/2000/svg"><g id="XMLID_17_"><g id="XMLID_2570_"><g id="XMLID_2571_"><g id="XMLID_2572_"><g id="XMLID_2573_"><g id="XMLID_2574_"><g id="XMLID_2575_"><g id="XMLID_2576_"><g id="XMLID_2577_"><g id="XMLID_2578_"><g id="XMLID_2579_"><g id="XMLID_2580_"><g id="XMLID_2581_"><g id="XMLID_2582_"><g id="XMLID_2583_"><circle id="XMLID_2584_" cx="256" cy="256" fill="#00ff95" r="256"/></g></g></g></g></g></g></g></g></g></g></g></g></g></g><path id="XMLID_178_" d="m512 256c0-3.544-.092-7.067-.234-10.576l-97.099-97.099-88.079 9.087-68.256-68.746-169.267 146.985 83.983 82.801-12.952 104.548 88.901 88.901c2.327.063 4.66.099 7.002.099 141.386 0 256.001-114.615 256.001-256z" fill="#00ce8e"/><g id="XMLID_1749_"><g id="XMLID_2761_"><path id="XMLID_2760_" d="m89.065 88.667h169.266v146.984h-169.266z" fill="#ff9b00"/><path id="XMLID_2759_" d="m173.697 88.667h84.636v146.983h-84.636z" fill="#ff7600"/><path id="XMLID_2758_" d="m196.663 88.667v40.696l-4.593-3.597-4.593 3.597-4.593-3.597-4.593 3.597-4.593-3.597-4.593 3.597-4.593-3.597-4.593 3.597-4.592-3.597-4.593 3.597v-40.696z" fill="#797880"/><path id="XMLID_2757_" d="m196.662 88.667v40.694l-4.593-3.593-4.593 3.593-4.593-3.593-4.593 3.593-4.593-3.593v-37.101z" fill="#57545c"/></g><g id="XMLID_1083_"><path id="XMLID_1207_" d="m272.667 423h-112.571v-166h224.571v-78.675h-104v-30h134v138.675h-224.571v106h82.571z" fill="#5c68e1"/></g><g id="XMLID_193_"><path id="XMLID_204_" d="m258.333 393h14.33v30h-14.33z" fill="#00419c"/></g><path id="XMLID_205_" d="m414.663 148.33v138.67h-156.33v-30h126.33v-78.67h-104v-30z" fill="#00419c"/><path id="XMLID_1341_" d="m346.5 305.5c-24.083 0-55.113 18.901-55.113 61.786 0 41.693 55.113 86.881 55.113 86.881s55.113-45.188 55.113-86.881c0-42.885-31.03-61.786-55.113-61.786z" fill="#ff6378"/><path id="XMLID_1676_" d="m401.613 367.29c0 41.69-55.11 86.88-55.11 86.88v-148.67c24.08 0 55.11 18.9 55.11 61.79z" fill="#ed1c86"/><ellipse id="XMLID_98_" cx="346.5" cy="360.667" fill="#fff" rx="26.333" ry="26.333" transform="matrix(.147 -.989 .989 .147 -61.203 650.358)"/><path id="XMLID_1672_" d="m372.833 360.67c0 14.54-11.79 26.33-26.33 26.33v-52.67c14.54 0 26.33 11.79 26.33 26.34z" fill="#fff5ca"/></g></g></svg>